<?xml version="1.0" encoding="UTF-8" standalone="no"?><!DOCTYPE svg PUBLIC "-//W3C//DTD SVG 1.1//EN" "http://www.w3.org/Graphics/SVG/1.1/DTD/svg11.dtd"><svg width="100%" height="100%" viewBox="0 0 600 600" version="1.1" xmlns="http://www.w3.org/2000/svg" xmlns:xlink="http://www.w3.org/1999/xlink" xml:space="preserve" xmlns:serif="http://www.serif.com/" style="fill-rule:evenodd;clip-rule:evenodd;stroke-linejoin:round;stroke-miterlimit:2;"><rect id="Artboard1" x="0" y="0" width="600" height="600" style="fill:none;"/><g id="Artboard11" serif:id="Artboard1"><g><path d="M550.263,133.181c0,-22.132 -8.791,-43.356 -24.44,-59.005c-15.65,-15.649 -36.875,-24.441 -59.006,-24.441l-333.637,0c-22.131,0 -43.356,8.792 -59.004,24.441c-15.65,15.649 -24.441,36.873 -24.441,59.005l-0,333.637c-0,22.132 8.791,43.356 24.441,59.007c15.648,15.648 36.873,24.439 59.004,24.439l333.637,0c22.131,0 43.356,-8.791 59.006,-24.439c15.649,-15.651 24.44,-36.875 24.44,-59.007l0,-333.637Z" style="fill:#15151c;"/></g><g><path d="M278.297,300.675l0,0.372c0,5.924 -2.432,11.608 -6.756,15.796c-4.328,4.19 -10.194,6.542 -16.311,6.542l-108.931,0c-6.118,0 -11.985,-2.352 -16.311,-6.542c-4.326,-4.188 -6.756,-9.872 -6.756,-15.796l0,-0.372c0,-5.925 2.43,-11.606 6.756,-15.795c4.326,-4.19 10.193,-6.543 16.311,-6.543l108.931,-0c6.117,-0 11.983,2.353 16.311,6.543c4.324,4.189 6.756,9.87 6.756,15.795Zm19.44,-18.453l-0.385,-0c-6.117,-0 -11.987,-2.354 -16.311,-6.543c-4.327,-4.189 -6.756,-9.871 -6.756,-15.795l-0,-109.21c-0,-5.924 2.429,-11.606 6.756,-15.795c4.324,-4.189 10.194,-6.543 16.311,-6.543l0.385,0c6.117,0 11.983,2.354 16.311,6.543c4.327,4.189 6.756,9.871 6.756,15.795l0,109.21c0,5.924 -2.429,11.606 -6.756,15.795c-4.328,4.189 -10.194,6.543 -16.311,6.543Zm19.055,18.825l-0,-0.372c-0,-5.925 2.432,-11.606 6.756,-15.795c4.327,-4.19 10.194,-6.543 16.311,-6.543l113.842,-0c6.117,-0 11.986,2.353 16.31,6.543c4.328,4.189 6.757,9.87 6.757,15.795l-0,0.372c-0,5.924 -2.429,11.608 -6.757,15.796c-4.324,4.19 -10.193,6.542 -16.31,6.542l-113.842,0c-6.117,0 -11.984,-2.352 -16.311,-6.542c-4.324,-4.188 -6.756,-9.872 -6.756,-15.796Zm-19.44,18.453l0.385,-0c6.117,-0 11.983,2.355 16.311,6.543c4.327,4.19 6.756,9.871 6.756,15.795l0,105.487c0,5.924 -2.429,11.608 -6.756,15.796c-4.328,4.19 -10.194,6.543 -16.311,6.543l-0.385,-0c-6.117,-0 -11.987,-2.353 -16.311,-6.543c-4.327,-4.188 -6.756,-9.872 -6.756,-15.796l-0,-105.487c-0,-5.924 2.429,-11.605 6.756,-15.795c4.324,-4.188 10.194,-6.543 16.311,-6.543Z" style="fill:#f0f0f0;"/></g></g></svg>